REM DIRINDEX 1\2,1\3
REM DIRNAME folder01,folder02,folder03
TITLE ""
FILE "NextStage_4th-Part3-P188-2.mp3" MP3
  TRACK 01 AUDIO
    TITLE "0:"
    INDEX 01 00:00:00
  TRACK 02 AUDIO
    TITLE "3:cjc036_2338"
    INDEX 01 00:00:09
  TRACK 03 AUDIO
    TITLE "0:"
    INDEX 01 00:02:04
  TRACK 04 AUDIO
    TITLE "2:cjc036_2339"
    INDEX 01 00:02:16
  TRACK 05 AUDIO
    TITLE "0:"
    INDEX 01 00:06:08
  TRACK 06 AUDIO
    TITLE "3:cjc036_2340"
    INDEX 01 00:06:55
  TRACK 07 AUDIO
    TITLE "0:"
    INDEX 01 00:08:56
  TRACK 08 AUDIO
    TITLE "2:cjc036_2341"
    INDEX 01 00:08:66
  TRACK 09 AUDIO
    TITLE "0:"
    INDEX 01 00:11:58
  TRACK 10 AUDIO
    TITLE "3:cjc036_2342"
    INDEX 01 00:12:38
  TRACK 11 AUDIO
    TITLE "0:"
    INDEX 01 00:14:19
  TRACK 12 AUDIO
    TITLE "2:cjc036_2343"
    INDEX 01 00:14:33
  TRACK 13 AUDIO
    TITLE "0:"
    INDEX 01 00:17:20
  TRACK 14 AUDIO
    TITLE "3:cjc036_2344"
    INDEX 01 00:17:72
  TRACK 15 AUDIO
    TITLE "0:"
    INDEX 01 00:19:73
  TRACK 16 AUDIO
    TITLE "2:cjc036_2345"
    INDEX 01 00:20:06
  TRACK 17 AUDIO
    TITLE "0:"
    INDEX 01 00:22:70
  TRACK 18 AUDIO
    TITLE "3:cjc036_2346"
    INDEX 01 00:23:46
  TRACK 19 AUDIO
    TITLE "0:"
    INDEX 01 00:25:13
  TRACK 20 AUDIO
    TITLE "2:cjc036_2347"
    INDEX 01 00:25:23
  TRACK 21 AUDIO
    TITLE "0:"
    INDEX 01 00:28:31
  TRACK 22 AUDIO
    TITLE "3:cjc036_2348"
    INDEX 01 00:29:03
  TRACK 23 AUDIO
    TITLE "0:"
    INDEX 01 00:30:67
  TRACK 24 AUDIO
    TITLE "2:cjc036_2349"
    INDEX 01 00:31:02
  TRACK 25 AUDIO
    TITLE "0:"
    INDEX 01 00:33:24
  TRACK 26 AUDIO
    TITLE "3:cjc036_2350"
    INDEX 01 00:34:00
  TRACK 27 AUDIO
    TITLE "0:"
    INDEX 01 00:35:64
  TRACK 28 AUDIO
    TITLE "3:cjc036_2351"
    INDEX 01 00:35:74
  TRACK 29 AUDIO
    TITLE "0:"
    INDEX 01 00:36:68
  TRACK 30 AUDIO
    TITLE "2:cjc036_2352"
    INDEX 01 00:36:70
  TRACK 31 AUDIO
    TITLE "0:"
    INDEX 01 00:39:31
  TRACK 32 AUDIO
    TITLE "3:cjc036_2353"
    INDEX 01 00:39:51
  TRACK 33 AUDIO
    TITLE "0:"
    INDEX 01 00:40:38
  TRACK 34 AUDIO
    TITLE "2:cjc036_2354"
    INDEX 01 00:40:40
  TRACK 35 AUDIO
    TITLE "0:"
    INDEX 01 00:42:70
  TRACK 36 AUDIO
    TITLE "3:cjc036_2355"
    INDEX 01 00:43:42
  TRACK 37 AUDIO
    TITLE "0:"
    INDEX 01 00:45:28
  TRACK 38 AUDIO
    TITLE "2:cjc036_2356"
    INDEX 01 00:45:43
  TRACK 39 AUDIO
    TITLE "0:"
    INDEX 01 00:48:65
  TRACK 40 AUDIO
    TITLE "3:cjc036_2357"
    INDEX 01 00:49:33
  TRACK 41 AUDIO
    TITLE "0:"
    INDEX 01 00:51:26
  TRACK 42 AUDIO
    TITLE "2:cjc036_2358"
    INDEX 01 00:51:36
  TRACK 43 AUDIO
    TITLE "0:"
    INDEX 01 00:53:19
  TRACK 44 AUDIO
    TITLE "3:cjc036_2359"
    INDEX 01 00:53:68
  TRACK 45 AUDIO
    TITLE "0:"
    INDEX 01 00:55:55
  TRACK 46 AUDIO
    TITLE "2:cjc036_2360"
    INDEX 01 00:55:69
  TRACK 47 AUDIO
    TITLE "0:"
    INDEX 01 00:59:04
  TRACK 48 AUDIO
    TITLE "3:cjc036_2361"
    INDEX 01 00:59:45
  TRACK 49 AUDIO
    TITLE "0:"
    INDEX 01 01:01:40
  TRACK 50 AUDIO
    TITLE "2:cjc036_2362"
    INDEX 01 01:01:48
  TRACK 51 AUDIO
    TITLE "0:"
    INDEX 01 01:05:01
  TRACK 52 AUDIO
    TITLE "3:cjc036_2363"
    INDEX 01 01:05:50
  TRACK 53 AUDIO
    TITLE "0:"
    INDEX 01 01:07:43
  TRACK 54 AUDIO
    TITLE "2:cjc036_2364"
    INDEX 01 01:07:55
  TRACK 55 AUDIO
    TITLE "0:"
    INDEX 01 01:12:26
  TRACK 56 AUDIO
    TITLE "3:cjc036_2365"
    INDEX 01 01:12:71
  TRACK 57 AUDIO
    TITLE "0:"
    INDEX 01 01:14:53
  TRACK 58 AUDIO
    TITLE "2:cjc036_2366"
    INDEX 01 01:14:63
  TRACK 59 AUDIO
    TITLE "0:"
    INDEX 01 01:18:70
  TRACK 60 AUDIO
    TITLE "3:cjc036_2367"
    INDEX 01 01:19:46
  TRACK 61 AUDIO
    TITLE "0:"
    INDEX 01 01:21:37
  TRACK 62 AUDIO
    TITLE "2:cjc036_2368"
    INDEX 01 01:21:47
  TRACK 63 AUDIO
    TITLE "0:"
    INDEX 01 01:24:28
  TRACK 64 AUDIO
    TITLE "3:cjc036_2369"
    INDEX 01 01:25:08
  TRACK 65 AUDIO
    TITLE "0:"
    INDEX 01 01:26:56
  TRACK 66 AUDIO
    TITLE "2:cjc036_2370"
    INDEX 01 01:26:62
  TRACK 67 AUDIO
    TITLE "0:"
    INDEX 01 01:31:14
